<mxfile host="app.diagrams.net" modified="2023-05-15T20:16:25.241Z" agent="Mozilla/5.0 (Windows NT 10.0; Win64; x64) AppleWebKit/537.36 (KHTML, like Gecko) Chrome/113.0.0.0 Safari/537.36" etag="ocjUjGvxuSkKrAyBH87Z" version="21.1.2" type="google">
  <diagram name="Сторінка-1" id="MJ-27vHClqkrGlNq7stm">
    <mxGraphModel grid="1" page="1" gridSize="10" guides="1" tooltips="1" connect="1" arrows="1" fold="1" pageScale="1" pageWidth="1654" pageHeight="2336" math="0" shadow="0">
      <root>
        <mxCell id="0" />
        <mxCell id="1" parent="0" />
        <mxCell id="c1ySDMqQpCsEUxz4fIQ0-2" value="&lt;p style=&quot;margin:0px;margin-top:4px;text-align:center;&quot;&gt;&lt;i&gt;&amp;lt;&amp;lt;Interface&amp;gt;&amp;gt;&lt;/i&gt;&lt;br&gt;&lt;b&gt;IClonable&amp;lt;T&amp;gt;&lt;/b&gt;&lt;/p&gt;&lt;hr size=&quot;1&quot;&gt;&lt;p style=&quot;margin:0px;margin-left:4px;&quot;&gt;&lt;/p&gt;&lt;p style=&quot;margin:0px;margin-left:4px;&quot;&gt;+ Clone(): T&lt;br&gt;&lt;/p&gt;" style="verticalAlign=top;align=left;overflow=fill;fontSize=12;fontFamily=Helvetica;html=1;whiteSpace=wrap;" vertex="1" parent="1">
          <mxGeometry x="1342" y="1610" width="190" height="70" as="geometry" />
        </mxCell>
        <mxCell id="c1ySDMqQpCsEUxz4fIQ0-3" value="&lt;p style=&quot;margin:0px;margin-top:4px;text-align:center;&quot;&gt;&lt;i&gt;&amp;lt;&amp;lt;Interface&amp;gt;&amp;gt;&lt;/i&gt;&lt;br&gt;&lt;b&gt;ISubject&lt;/b&gt;&lt;/p&gt;&lt;hr size=&quot;1&quot;&gt;&lt;p style=&quot;margin:0px;margin-left:4px;&quot;&gt;&lt;/p&gt;&lt;p style=&quot;margin:0px;margin-left:4px;&quot;&gt;+ AttachObserver(List&amp;lt;ITrafficLightObserver&amp;gt;): void&lt;br&gt;+ AttachSchedule(List&amp;lt;TrafficPeriod&amp;gt;): void&lt;/p&gt;&lt;p style=&quot;margin:0px;margin-left:4px;&quot;&gt;+ Detach(ITrafficLightObserver): void&lt;br&gt;&lt;/p&gt;&lt;p style=&quot;margin:0px;margin-left:4px;&quot;&gt;+&amp;nbsp;Notify(int[], int[]): void&lt;/p&gt;&lt;p style=&quot;margin:0px;margin-left:4px;&quot;&gt;&lt;br&gt;&lt;/p&gt;" style="verticalAlign=top;align=left;overflow=fill;fontSize=12;fontFamily=Helvetica;html=1;whiteSpace=wrap;" vertex="1" parent="1">
          <mxGeometry x="52" y="1910" width="324" height="110" as="geometry" />
        </mxCell>
        <mxCell id="c1ySDMqQpCsEUxz4fIQ0-5" value="&lt;p style=&quot;margin:0px;margin-top:4px;text-align:center;&quot;&gt;&lt;i&gt;&amp;lt;&amp;lt;Interface&amp;gt;&amp;gt;&lt;/i&gt;&lt;br&gt;&lt;b style=&quot;background-color: initial;&quot;&gt;ITrafficLightObserver&lt;/b&gt;&lt;/p&gt;&lt;hr size=&quot;1&quot;&gt;&lt;p style=&quot;margin:0px;margin-left:4px;&quot;&gt;+ &amp;lt;&amp;lt;get&amp;gt;&amp;gt;Type: int&lt;br&gt;&lt;/p&gt;&lt;hr size=&quot;1&quot;&gt;&lt;p style=&quot;margin:0px;margin-left:4px;&quot;&gt;+ GetState(): object&lt;br&gt;+ ToString(): string&lt;/p&gt;&lt;p style=&quot;margin:0px;margin-left:4px;&quot;&gt;+ UpdateAsync(int, int): Task&lt;/p&gt;" style="verticalAlign=top;align=left;overflow=fill;fontSize=12;fontFamily=Helvetica;html=1;whiteSpace=wrap;" vertex="1" parent="1">
          <mxGeometry x="1342" y="1410" width="190" height="140" as="geometry" />
        </mxCell>
        <mxCell id="c1ySDMqQpCsEUxz4fIQ0-6" value="&lt;p style=&quot;margin:0px;margin-top:4px;text-align:center;&quot;&gt;&lt;b&gt;&lt;u&gt;View&lt;/u&gt;&lt;/b&gt;&lt;/p&gt;&lt;hr size=&quot;1&quot;&gt;&lt;p style=&quot;margin:0px;margin-left:4px;&quot;&gt;+ &lt;u&gt;&amp;lt;&amp;lt;Event&amp;gt;&amp;gt; ChangingTrafficOrder: Action&amp;lt;int&amp;gt;&lt;/u&gt;&lt;/p&gt;&lt;hr size=&quot;1&quot;&gt;&lt;p style=&quot;margin:0px;margin-left:4px;&quot;&gt;+ &lt;u&gt;PrintState(dynamic[], TimeSpan): void&lt;/u&gt;&lt;/p&gt;&lt;p style=&quot;margin:0px;margin-left:4px;&quot;&gt;+&amp;nbsp;&lt;u&gt;PrintChangeState(int): void&lt;/u&gt;&lt;/p&gt;" style="verticalAlign=top;align=left;overflow=fill;fontSize=12;fontFamily=Helvetica;html=1;whiteSpace=wrap;" vertex="1" parent="1">
          <mxGeometry x="222" y="870" width="320" height="90" as="geometry" />
        </mxCell>
        <mxCell id="c1ySDMqQpCsEUxz4fIQ0-7" value="&lt;p style=&quot;margin:0px;margin-top:4px;text-align:center;&quot;&gt;&lt;b&gt;TrafficLight&lt;/b&gt;&lt;/p&gt;&lt;hr size=&quot;1&quot;&gt;&lt;p style=&quot;margin:0px;margin-left:4px;&quot;&gt;- _tupe: int&lt;/p&gt;&lt;p style=&quot;margin:0px;margin-left:4px;&quot;&gt;- _id: int&lt;br&gt;&lt;/p&gt;&lt;p style=&quot;margin:0px;margin-left:4px;&quot;&gt;- &amp;lt;&amp;lt;readonly&amp;gt;&amp;gt;_number: int&lt;br&gt;&lt;/p&gt;&lt;p style=&quot;margin:0px;margin-left:4px;&quot;&gt;- _state: int&lt;/p&gt;&lt;p style=&quot;margin:0px;margin-left:4px;&quot;&gt;+ &amp;lt;&amp;lt;get&amp;gt;&amp;gt; Type: int&lt;/p&gt;&lt;p style=&quot;margin:0px;margin-left:4px;&quot;&gt;+ &amp;lt;&amp;lt;get&amp;gt;&amp;gt; ID: int&lt;/p&gt;&lt;hr size=&quot;1&quot;&gt;&lt;p style=&quot;margin:0px;margin-left:4px;&quot;&gt;+ &amp;lt;&amp;lt;constructor&amp;gt;&amp;gt; TrafficLight(int, int, int)&lt;/p&gt;&lt;p style=&quot;margin:0px;margin-left:4px;&quot;&gt;&lt;span style=&quot;background-color: initial;&quot;&gt;+ Update(int, int): Task&lt;/span&gt;&lt;/p&gt;&lt;p style=&quot;margin:0px;margin-left:4px;&quot;&gt;- ColorParseAsync(int, int): Task&lt;/p&gt;&lt;p style=&quot;margin:0px;margin-left:4px;&quot;&gt;&lt;span style=&quot;background-color: initial;&quot;&gt;+ GetState(): object&lt;/span&gt;&lt;/p&gt;&lt;p style=&quot;margin:0px;margin-left:4px;&quot;&gt;&lt;span style=&quot;background-color: initial;&quot;&gt;+ToString(): string&lt;/span&gt;&lt;/p&gt;&lt;p style=&quot;margin:0px;margin-left:4px;&quot;&gt;&lt;span style=&quot;background-color: initial;&quot;&gt;+ Clone(): TrafficLight&lt;/span&gt;&lt;/p&gt;" style="verticalAlign=top;align=left;overflow=fill;fontSize=12;fontFamily=Helvetica;html=1;whiteSpace=wrap;" vertex="1" parent="1">
          <mxGeometry x="832" y="1370" width="320" height="220" as="geometry" />
        </mxCell>
        <mxCell id="c1ySDMqQpCsEUxz4fIQ0-8" value="&lt;p style=&quot;margin:0px;margin-top:4px;text-align:center;&quot;&gt;&lt;b&gt;TrafficPeriod&lt;/b&gt;&lt;/p&gt;&lt;hr size=&quot;1&quot;&gt;&lt;p style=&quot;margin:0px;margin-left:4px;&quot;&gt;- &amp;lt;&amp;lt;readonly&amp;gt;&amp;gt; _light_matrix: int[]&lt;/p&gt;&lt;p style=&quot;border-color: var(--border-color); margin: 0px 0px 0px 4px;&quot;&gt;- &amp;lt;&amp;lt;readonly&amp;gt;&amp;gt; _timer_period: int&lt;/p&gt;&lt;p style=&quot;border-color: var(--border-color); margin: 0px 0px 0px 4px;&quot;&gt;- &amp;lt;&amp;lt;readonly&amp;gt;&amp;gt; _yellow_period: int&lt;/p&gt;&lt;p style=&quot;border-color: var(--border-color); margin: 0px 0px 0px 4px;&quot;&gt;+ &amp;lt;&amp;lt;get&amp;gt;&amp;gt; Ints: int[]&lt;/p&gt;&lt;p style=&quot;border-color: var(--border-color); margin: 0px 0px 0px 4px;&quot;&gt;+ &amp;lt;&amp;lt;get&amp;gt;&amp;gt; Period: int&lt;/p&gt;&lt;p style=&quot;border-color: var(--border-color); margin: 0px 0px 0px 4px;&quot;&gt;+ &amp;lt;&amp;lt;get&amp;gt;&amp;gt; YellowPeriod: int&lt;/p&gt;&lt;hr size=&quot;1&quot;&gt;&lt;p style=&quot;margin:0px;margin-left:4px;&quot;&gt;+ &amp;lt;&amp;lt;constructor&amp;gt;&amp;gt; TrafficPeriod(int[], int, int)&lt;/p&gt;&lt;p style=&quot;margin:0px;margin-left:4px;&quot;&gt;- &amp;lt;&amp;lt;constructor&amp;gt;&amp;gt; TrafficPeriod(TrafficPeriod)&lt;/p&gt;&lt;p style=&quot;margin:0px;margin-left:4px;&quot;&gt;+ Clone(): TrafficPeriod&lt;/p&gt;" style="verticalAlign=top;align=left;overflow=fill;fontSize=12;fontFamily=Helvetica;html=1;whiteSpace=wrap;" vertex="1" parent="1">
          <mxGeometry x="972" y="1790" width="280" height="180" as="geometry" />
        </mxCell>
        <mxCell id="c1ySDMqQpCsEUxz4fIQ0-9" value="&lt;p style=&quot;margin:0px;margin-top:4px;text-align:center;&quot;&gt;&lt;b&gt;&lt;u&gt;Validator&lt;/u&gt;&lt;/b&gt;&lt;/p&gt;&lt;hr size=&quot;1&quot;&gt;&lt;p style=&quot;margin:0px;margin-left:4px;&quot;&gt;&lt;/p&gt;&lt;p style=&quot;margin:0px;margin-left:4px;&quot;&gt;+ &lt;u&gt;ValidateRecord(int): bool&lt;/u&gt;&lt;/p&gt;" style="verticalAlign=top;align=left;overflow=fill;fontSize=12;fontFamily=Helvetica;html=1;whiteSpace=wrap;" vertex="1" parent="1">
          <mxGeometry x="1422.47" y="1048" width="160" height="60" as="geometry" />
        </mxCell>
        <mxCell id="c1ySDMqQpCsEUxz4fIQ0-10" value="&lt;p style=&quot;margin:0px;margin-top:4px;text-align:center;&quot;&gt;&lt;/p&gt;&lt;p style=&quot;text-align: center; margin: 0px 0px 0px 4px;&quot;&gt;&lt;b&gt;Controller&lt;/b&gt;&lt;/p&gt;&lt;hr&gt;&lt;p style=&quot;margin:0px;margin-left:4px;&quot;&gt;- _id: int&lt;/p&gt;&lt;p style=&quot;margin:0px;margin-left:4px;&quot;&gt;- _schedule_light: List&amp;lt;TrafficPeriod&amp;gt;&lt;/p&gt;&lt;p style=&quot;margin:0px;margin-left:4px;&quot;&gt;- _traffic_lights: List&amp;lt;ITrafficLightObserver&amp;gt;&lt;/p&gt;&lt;p style=&quot;margin:0px;margin-left:4px;&quot;&gt;- &amp;lt;&amp;lt;volatile&amp;gt;&amp;gt;_shouldStop: bool&lt;/p&gt;&lt;p style=&quot;margin:0px;margin-left:4px;&quot;&gt;+ &amp;lt;&amp;lt;get, set&amp;gt;&amp;gt; ID: int&lt;/p&gt;&lt;hr size=&quot;1&quot;&gt;&lt;p style=&quot;margin:0px;margin-left:4px;&quot;&gt;+ RequestStop(): void&lt;/p&gt;&lt;p style=&quot;margin:0px;margin-left:4px;&quot;&gt;+ AttachObserver(List&amp;lt;ITrafficLightObserver&amp;gt;): void&lt;/p&gt;&lt;p style=&quot;margin:0px;margin-left:4px;&quot;&gt;+ AttachSchedule(List&amp;lt;TrafficPeriod&amp;gt;): void&lt;/p&gt;&lt;p style=&quot;margin:0px;margin-left:4px;&quot;&gt;+ Detach (ITrafficLightObserver): void&lt;/p&gt;&lt;p style=&quot;margin:0px;margin-left:4px;&quot;&gt;+ Notify(int[], int): void&lt;/p&gt;&lt;p style=&quot;margin:0px;margin-left:4px;&quot;&gt;+ LightFlow(): void&lt;/p&gt;" style="verticalAlign=top;align=left;overflow=fill;fontSize=12;fontFamily=Helvetica;html=1;whiteSpace=wrap;" vertex="1" parent="1">
          <mxGeometry x="52" y="1560" width="324" height="210" as="geometry" />
        </mxCell>
        <mxCell id="c1ySDMqQpCsEUxz4fIQ0-11" value="&lt;p style=&quot;margin:0px;margin-top:4px;text-align:center;&quot;&gt;&lt;b&gt;InitializeCrossroads&lt;/b&gt;&lt;/p&gt;&lt;hr size=&quot;1&quot;&gt;&lt;p style=&quot;margin:0px;margin-left:4px;&quot;&gt;- _duration: int&lt;/p&gt;&lt;hr size=&quot;1&quot;&gt;&lt;p style=&quot;margin:0px;margin-left:4px;&quot;&gt;+ Start(): void&lt;/p&gt;&lt;p style=&quot;margin:0px;margin-left:4px;&quot;&gt;- InitializeTraffic(): void&lt;/p&gt;&lt;p style=&quot;margin:0px;margin-left:4px;&quot;&gt;- CrossroadsGenerator(List&amp;lt;List&amp;lt;TrafficPeriod&amp;gt;&amp;gt;, List&amp;lt;int[]&amp;gt;):&amp;nbsp;List&amp;lt;List&amp;lt;ITrafficLightObserver&amp;gt;&amp;gt;&lt;/p&gt;&lt;p style=&quot;margin:0px;margin-left:4px;&quot;&gt;- ControllerGenerator(List&amp;lt;List&amp;lt;ITrafficLightObserver&amp;gt;&amp;gt;. List&amp;lt;List&amp;lt;TrafficPeriod&amp;gt;&amp;gt;):&amp;nbsp;List&amp;lt;Controller&amp;gt;&lt;/p&gt;&lt;p style=&quot;margin:0px;margin-left:4px;&quot;&gt;- ThreadGenerator(List&amp;lt;Controller&amp;gt;): List&amp;lt;Thread&amp;gt;&lt;/p&gt;&lt;p style=&quot;margin:0px;margin-left:4px;&quot;&gt;- StartThreads(List&amp;lt;Thread&amp;gt;): void&lt;/p&gt;&lt;p style=&quot;margin:0px;margin-left:4px;&quot;&gt;- StopThreads(List&amp;lt;Controller&amp;gt;): void&lt;/p&gt;" style="verticalAlign=top;align=left;overflow=fill;fontSize=12;fontFamily=Helvetica;html=1;whiteSpace=wrap;" vertex="1" parent="1">
          <mxGeometry x="1062" y="610" width="540" height="170" as="geometry" />
        </mxCell>
        <mxCell id="c1ySDMqQpCsEUxz4fIQ0-12" value="&lt;p style=&quot;margin:0px;margin-top:4px;text-align:center;&quot;&gt;&lt;b&gt;Program&lt;/b&gt;&lt;/p&gt;&lt;hr size=&quot;1&quot;&gt;&lt;p style=&quot;margin:0px;margin-left:4px;&quot;&gt;+ &lt;u&gt;Main(string[]): void&lt;/u&gt;&lt;/p&gt;" style="verticalAlign=top;align=left;overflow=fill;fontSize=12;fontFamily=Helvetica;html=1;whiteSpace=wrap;" vertex="1" parent="1">
          <mxGeometry x="1252" y="480" width="160" height="50" as="geometry" />
        </mxCell>
        <mxCell id="c1ySDMqQpCsEUxz4fIQ0-13" value="&lt;p style=&quot;margin:0px;margin-top:4px;text-align:center;&quot;&gt;&lt;b&gt;DataColector&lt;/b&gt;&lt;/p&gt;&lt;hr size=&quot;1&quot;&gt;&lt;p style=&quot;margin:0px;margin-left:4px;&quot;&gt;- &amp;lt;&amp;lt;volatile&amp;gt;&amp;gt; _shouldStop: bool&lt;/p&gt;&lt;p style=&quot;margin:0px;margin-left:4px;&quot;&gt;- _crossroads: List&amp;lt;List&amp;lt;ITrafficLightObserver&amp;gt;&amp;gt;&lt;/p&gt;&lt;hr size=&quot;1&quot;&gt;&lt;p style=&quot;margin:0px;margin-left:4px;&quot;&gt;+ RequestStop(): void&lt;/p&gt;&lt;p style=&quot;margin:0px;margin-left:4px;&quot;&gt;+ SetCrosRoads(List&amp;lt;List&amp;lt;ITrafficLightObserver&amp;gt;&amp;gt;): void&lt;/p&gt;&lt;p style=&quot;margin:0px;margin-left:4px;&quot;&gt;+ Collector(): void&lt;/p&gt;&lt;p style=&quot;margin:0px;margin-left:4px;&quot;&gt;- CountLights(List&amp;lt;List&amp;lt;ITrafficLightObserver&amp;gt;&amp;gt;): int&lt;/p&gt;" style="verticalAlign=top;align=left;overflow=fill;fontSize=12;fontFamily=Helvetica;html=1;whiteSpace=wrap;" vertex="1" parent="1">
          <mxGeometry x="282" y="1155" width="360" height="140" as="geometry" />
        </mxCell>
        <mxCell id="c1ySDMqQpCsEUxz4fIQ0-14" value="&lt;p style=&quot;margin:0px;margin-top:4px;text-align:center;&quot;&gt;&lt;b&gt;&lt;u&gt;DataHandler&lt;/u&gt;&lt;/b&gt;&lt;/p&gt;&lt;hr size=&quot;1&quot;&gt;&lt;p style=&quot;margin:0px;margin-left:4px;&quot;&gt;- _&lt;u&gt;handled_string: string&lt;/u&gt;&lt;/p&gt;&lt;hr size=&quot;1&quot;&gt;&lt;p style=&quot;margin:0px;margin-left:4px;&quot;&gt;+ &lt;u&gt;SetString(string): void&lt;/u&gt;&lt;/p&gt;&lt;p style=&quot;margin:0px;margin-left:4px;&quot;&gt;+ &lt;u&gt;GetString(): string&lt;/u&gt;&lt;/p&gt;" style="verticalAlign=top;align=left;overflow=fill;fontSize=12;fontFamily=Helvetica;html=1;whiteSpace=wrap;" vertex="1" parent="1">
          <mxGeometry x="702" y="1180" width="160" height="90" as="geometry" />
        </mxCell>
        <mxCell id="c1ySDMqQpCsEUxz4fIQ0-15" value="&lt;p style=&quot;margin:0px;margin-top:4px;text-align:center;&quot;&gt;&lt;b&gt;&lt;u&gt;ServerService&lt;/u&gt;&lt;/b&gt;&lt;/p&gt;&lt;hr size=&quot;1&quot;&gt;&lt;p style=&quot;margin:0px;margin-left:4px;&quot;&gt;+ &lt;u&gt;StartServer(): void&lt;/u&gt;&lt;/p&gt;" style="verticalAlign=top;align=left;overflow=fill;fontSize=12;fontFamily=Helvetica;html=1;whiteSpace=wrap;" vertex="1" parent="1">
          <mxGeometry x="1002" y="930" width="160" height="50" as="geometry" />
        </mxCell>
        <mxCell id="c1ySDMqQpCsEUxz4fIQ0-16" value="&lt;p style=&quot;margin:0px;margin-top:4px;text-align:center;&quot;&gt;&lt;b&gt;Worker::BackgroundService&lt;/b&gt;&lt;/p&gt;&lt;hr size=&quot;1&quot;&gt;&lt;p style=&quot;margin:0px;margin-left:4px;&quot;&gt;- &amp;lt;&amp;lt;readonly&amp;gt;&amp;gt; _loger: ILogger&amp;lt;Worker&amp;gt;&lt;/p&gt;&lt;hr size=&quot;1&quot;&gt;&lt;p style=&quot;margin:0px;margin-left:4px;&quot;&gt;+ &amp;lt;&amp;lt;constructor&amp;gt;&amp;gt; Worker(ILogger&amp;lt;Worker&amp;gt;)&lt;/p&gt;&lt;p style=&quot;margin:0px;margin-left:4px;&quot;&gt;# ExecuteAsync(CancellationToken): Task&lt;/p&gt;" style="verticalAlign=top;align=left;overflow=fill;fontSize=12;fontFamily=Helvetica;html=1;whiteSpace=wrap;" vertex="1" parent="1">
          <mxGeometry x="702" y="880" width="280" height="90" as="geometry" />
        </mxCell>
        <mxCell id="c1ySDMqQpCsEUxz4fIQ0-19" value="" style="endArrow=block;dashed=1;endFill=0;endSize=12;html=1;rounded=0;edgeStyle=orthogonalEdgeStyle;entryX=0;entryY=0.5;entryDx=0;entryDy=0;exitX=1;exitY=0.25;exitDx=0;exitDy=0;" edge="1" parent="1" source="c1ySDMqQpCsEUxz4fIQ0-7" target="c1ySDMqQpCsEUxz4fIQ0-5">
          <mxGeometry width="160" relative="1" as="geometry">
            <mxPoint x="1092" y="1370" as="sourcePoint" />
            <mxPoint x="1512" y="1270" as="targetPoint" />
            <Array as="points">
              <mxPoint x="1272" y="1425" />
              <mxPoint x="1272" y="1480" />
            </Array>
          </mxGeometry>
        </mxCell>
        <mxCell id="c1ySDMqQpCsEUxz4fIQ0-20" value="" style="endArrow=block;dashed=1;endFill=0;endSize=12;html=1;rounded=0;entryX=0;entryY=0.5;entryDx=0;entryDy=0;edgeStyle=orthogonalEdgeStyle;exitX=1;exitY=0.5;exitDx=0;exitDy=0;" edge="1" parent="1" source="c1ySDMqQpCsEUxz4fIQ0-7" target="c1ySDMqQpCsEUxz4fIQ0-2">
          <mxGeometry width="160" relative="1" as="geometry">
            <mxPoint x="1222" y="1540" as="sourcePoint" />
            <mxPoint x="1626.5" y="960" as="targetPoint" />
            <Array as="points">
              <mxPoint x="1232" y="1480" />
              <mxPoint x="1232" y="1645" />
            </Array>
          </mxGeometry>
        </mxCell>
        <mxCell id="c1ySDMqQpCsEUxz4fIQ0-21" value="" style="endArrow=block;dashed=1;endFill=0;endSize=12;html=1;rounded=0;edgeStyle=orthogonalEdgeStyle;entryX=0.5;entryY=1;entryDx=0;entryDy=0;exitX=1;exitY=0.25;exitDx=0;exitDy=0;" edge="1" parent="1" source="c1ySDMqQpCsEUxz4fIQ0-8" target="c1ySDMqQpCsEUxz4fIQ0-2">
          <mxGeometry width="160" relative="1" as="geometry">
            <mxPoint x="1462" y="1880" as="sourcePoint" />
            <mxPoint x="1597" y="1700" as="targetPoint" />
            <Array as="points">
              <mxPoint x="1437" y="1835" />
            </Array>
          </mxGeometry>
        </mxCell>
        <mxCell id="c1ySDMqQpCsEUxz4fIQ0-22" value="" style="endArrow=block;dashed=1;endFill=0;endSize=12;html=1;rounded=0;exitX=0.5;exitY=1;exitDx=0;exitDy=0;edgeStyle=orthogonalEdgeStyle;" edge="1" parent="1" source="c1ySDMqQpCsEUxz4fIQ0-10" target="c1ySDMqQpCsEUxz4fIQ0-3">
          <mxGeometry width="160" relative="1" as="geometry">
            <mxPoint x="1862" y="1530" as="sourcePoint" />
            <mxPoint x="1892" y="1570" as="targetPoint" />
            <Array as="points" />
          </mxGeometry>
        </mxCell>
        <mxCell id="c1ySDMqQpCsEUxz4fIQ0-23" value="1" style="endArrow=open;html=1;endSize=12;startArrow=diamondThin;startSize=14;startFill=1;edgeStyle=orthogonalEdgeStyle;align=left;verticalAlign=bottom;rounded=0;entryX=0.5;entryY=0;entryDx=0;entryDy=0;exitX=0.5;exitY=1;exitDx=0;exitDy=0;" edge="1" parent="1" source="c1ySDMqQpCsEUxz4fIQ0-12" target="c1ySDMqQpCsEUxz4fIQ0-11">
          <mxGeometry x="-0.5" y="10" relative="1" as="geometry">
            <mxPoint x="1212" y="450" as="sourcePoint" />
            <mxPoint x="1372" y="450" as="targetPoint" />
            <mxPoint as="offset" />
          </mxGeometry>
        </mxCell>
        <mxCell id="c1ySDMqQpCsEUxz4fIQ0-27" value="1" style="endArrow=open;html=1;endSize=12;startArrow=diamondThin;startSize=14;startFill=1;edgeStyle=orthogonalEdgeStyle;align=left;verticalAlign=bottom;rounded=0;entryX=1;entryY=0.5;entryDx=0;entryDy=0;" edge="1" parent="1" target="c1ySDMqQpCsEUxz4fIQ0-8">
          <mxGeometry x="-0.9647" y="18" relative="1" as="geometry">
            <mxPoint x="1332" y="780" as="sourcePoint" />
            <mxPoint x="1462" y="1870" as="targetPoint" />
            <mxPoint as="offset" />
            <Array as="points">
              <mxPoint x="1332" y="780" />
              <mxPoint x="1332" y="1250" />
              <mxPoint x="1592" y="1250" />
              <mxPoint x="1592" y="1880" />
            </Array>
          </mxGeometry>
        </mxCell>
        <mxCell id="c1ySDMqQpCsEUxz4fIQ0-28" value="1" style="endArrow=open;html=1;endSize=12;startArrow=diamondThin;startSize=14;startFill=1;edgeStyle=orthogonalEdgeStyle;align=left;verticalAlign=bottom;rounded=0;entryX=0.5;entryY=0;entryDx=0;entryDy=0;" edge="1" parent="1" target="c1ySDMqQpCsEUxz4fIQ0-7">
          <mxGeometry x="-0.9231" y="20" relative="1" as="geometry">
            <mxPoint x="1272" y="780" as="sourcePoint" />
            <mxPoint x="1382" y="920" as="targetPoint" />
            <mxPoint as="offset" />
            <Array as="points">
              <mxPoint x="1272" y="780" />
              <mxPoint x="1272" y="1165" />
              <mxPoint x="1212" y="1165" />
            </Array>
          </mxGeometry>
        </mxCell>
        <mxCell id="c1ySDMqQpCsEUxz4fIQ0-29" value="1" style="endArrow=open;html=1;endSize=12;startArrow=diamondThin;startSize=14;startFill=1;edgeStyle=orthogonalEdgeStyle;align=left;verticalAlign=bottom;rounded=0;" edge="1" parent="1" source="c1ySDMqQpCsEUxz4fIQ0-11" target="c1ySDMqQpCsEUxz4fIQ0-10">
          <mxGeometry x="-0.964" y="20" relative="1" as="geometry">
            <mxPoint x="1222" y="920" as="sourcePoint" />
            <mxPoint x="94" y="1560" as="targetPoint" />
            <mxPoint as="offset" />
            <Array as="points">
              <mxPoint x="162" y="680" />
            </Array>
          </mxGeometry>
        </mxCell>
        <mxCell id="c1ySDMqQpCsEUxz4fIQ0-32" value="" style="endArrow=open;endFill=1;endSize=12;html=1;rounded=0;entryX=-0.005;entryY=0.432;entryDx=0;entryDy=0;entryPerimeter=0;edgeStyle=orthogonalEdgeStyle;exitX=0.61;exitY=1.008;exitDx=0;exitDy=0;exitPerimeter=0;" edge="1" parent="1" source="c1ySDMqQpCsEUxz4fIQ0-11" target="c1ySDMqQpCsEUxz4fIQ0-9">
          <mxGeometry width="160" relative="1" as="geometry">
            <mxPoint x="1392" y="800" as="sourcePoint" />
            <mxPoint x="1638.47" y="710" as="targetPoint" />
            <Array as="points">
              <mxPoint x="1391" y="1074" />
            </Array>
          </mxGeometry>
        </mxCell>
        <mxCell id="c1ySDMqQpCsEUxz4fIQ0-33" value="" style="endArrow=open;endFill=1;endSize=12;html=1;rounded=0;edgeStyle=orthogonalEdgeStyle;exitX=0.25;exitY=1;exitDx=0;exitDy=0;" edge="1" parent="1" source="c1ySDMqQpCsEUxz4fIQ0-11" target="c1ySDMqQpCsEUxz4fIQ0-15">
          <mxGeometry width="160" relative="1" as="geometry">
            <mxPoint x="332" y="-109.94" as="sourcePoint" />
            <mxPoint x="-318" y="82.06" as="targetPoint" />
          </mxGeometry>
        </mxCell>
        <mxCell id="c1ySDMqQpCsEUxz4fIQ0-36" value="1" style="endArrow=open;html=1;endSize=12;startArrow=diamondThin;startSize=14;startFill=1;edgeStyle=orthogonalEdgeStyle;align=left;verticalAlign=bottom;rounded=0;entryX=0.75;entryY=1;entryDx=0;entryDy=0;" edge="1" parent="1" target="c1ySDMqQpCsEUxz4fIQ0-16">
          <mxGeometry x="-0.8561" y="10" relative="1" as="geometry">
            <mxPoint x="1080" y="980" as="sourcePoint" />
            <mxPoint x="952" y="1400" as="targetPoint" />
            <Array as="points">
              <mxPoint x="1080" y="1030" />
              <mxPoint x="912" y="1030" />
            </Array>
            <mxPoint as="offset" />
          </mxGeometry>
        </mxCell>
        <mxCell id="c1ySDMqQpCsEUxz4fIQ0-37" value="1" style="endArrow=open;html=1;endSize=12;startArrow=diamondThin;startSize=14;startFill=1;edgeStyle=orthogonalEdgeStyle;align=left;verticalAlign=bottom;rounded=0;entryX=0.75;entryY=0;entryDx=0;entryDy=0;" edge="1" parent="1" source="c1ySDMqQpCsEUxz4fIQ0-11" target="c1ySDMqQpCsEUxz4fIQ0-13">
          <mxGeometry x="-0.9365" y="20" relative="1" as="geometry">
            <mxPoint x="642" y="680" as="sourcePoint" />
            <mxPoint x="802" y="680" as="targetPoint" />
            <Array as="points">
              <mxPoint x="630" y="720" />
              <mxPoint x="630" y="980" />
              <mxPoint x="552" y="980" />
            </Array>
            <mxPoint as="offset" />
          </mxGeometry>
        </mxCell>
        <mxCell id="c1ySDMqQpCsEUxz4fIQ0-38" value="" style="endArrow=open;endFill=1;endSize=12;html=1;rounded=0;edgeStyle=orthogonalEdgeStyle;exitX=0.866;exitY=0.013;exitDx=0;exitDy=0;exitPerimeter=0;entryX=0.5;entryY=0;entryDx=0;entryDy=0;" edge="1" parent="1" source="c1ySDMqQpCsEUxz4fIQ0-13" target="c1ySDMqQpCsEUxz4fIQ0-14">
          <mxGeometry width="160" relative="1" as="geometry">
            <mxPoint x="562" y="1100" as="sourcePoint" />
            <mxPoint x="822" y="840" as="targetPoint" />
            <Array as="points">
              <mxPoint x="594" y="1070" />
              <mxPoint x="782" y="1070" />
            </Array>
          </mxGeometry>
        </mxCell>
        <mxCell id="c1ySDMqQpCsEUxz4fIQ0-39" value="" style="endArrow=open;endFill=1;endSize=12;html=1;rounded=0;edgeStyle=orthogonalEdgeStyle;exitX=0.5;exitY=0;exitDx=0;exitDy=0;entryX=0.75;entryY=1;entryDx=0;entryDy=0;" edge="1" parent="1" source="c1ySDMqQpCsEUxz4fIQ0-13" target="c1ySDMqQpCsEUxz4fIQ0-6">
          <mxGeometry width="160" relative="1" as="geometry">
            <mxPoint x="462" y="1150" as="sourcePoint" />
            <mxPoint x="462" y="840" as="targetPoint" />
            <Array as="points" />
          </mxGeometry>
        </mxCell>
        <mxCell id="c1ySDMqQpCsEUxz4fIQ0-40" value="" style="endArrow=open;endFill=1;endSize=12;html=1;rounded=0;edgeStyle=orthogonalEdgeStyle;" edge="1" parent="1" source="c1ySDMqQpCsEUxz4fIQ0-10" target="c1ySDMqQpCsEUxz4fIQ0-6">
          <mxGeometry width="160" relative="1" as="geometry">
            <mxPoint x="422" y="930" as="sourcePoint" />
            <mxPoint x="582" y="930" as="targetPoint" />
            <Array as="points">
              <mxPoint x="252" y="1050" />
              <mxPoint x="382" y="1050" />
            </Array>
          </mxGeometry>
        </mxCell>
        <mxCell id="c1ySDMqQpCsEUxz4fIQ0-41" value="" style="endArrow=open;endFill=1;endSize=12;html=1;rounded=0;entryX=1;entryY=0.5;entryDx=0;entryDy=0;edgeStyle=orthogonalEdgeStyle;exitX=0.5;exitY=1;exitDx=0;exitDy=0;" edge="1" parent="1" source="c1ySDMqQpCsEUxz4fIQ0-16" target="c1ySDMqQpCsEUxz4fIQ0-14">
          <mxGeometry width="160" relative="1" as="geometry">
            <mxPoint x="912" y="1050" as="sourcePoint" />
            <mxPoint x="662" y="370" as="targetPoint" />
            <Array as="points">
              <mxPoint x="882" y="970" />
              <mxPoint x="882" y="1225" />
            </Array>
          </mxGeometry>
        </mxCell>
        <mxCell id="c1ySDMqQpCsEUxz4fIQ0-45" value="" style="endArrow=open;endFill=1;endSize=12;html=1;rounded=0;exitX=0.5;exitY=1;exitDx=0;exitDy=0;entryX=0;entryY=0.5;entryDx=0;entryDy=0;edgeStyle=orthogonalEdgeStyle;" edge="1" parent="1" source="c1ySDMqQpCsEUxz4fIQ0-13" target="c1ySDMqQpCsEUxz4fIQ0-7">
          <mxGeometry width="160" relative="1" as="geometry">
            <mxPoint x="672" y="1600" as="sourcePoint" />
            <mxPoint x="832" y="1600" as="targetPoint" />
          </mxGeometry>
        </mxCell>
        <mxCell id="c1ySDMqQpCsEUxz4fIQ0-46" value="" style="endArrow=open;endFill=1;endSize=12;html=1;rounded=0;exitX=1;exitY=0.5;exitDx=0;exitDy=0;entryX=0.5;entryY=1;entryDx=0;entryDy=0;edgeStyle=orthogonalEdgeStyle;" edge="1" parent="1" source="c1ySDMqQpCsEUxz4fIQ0-10" target="c1ySDMqQpCsEUxz4fIQ0-7">
          <mxGeometry width="160" relative="1" as="geometry">
            <mxPoint x="592" y="1710" as="sourcePoint" />
            <mxPoint x="752" y="1710" as="targetPoint" />
          </mxGeometry>
        </mxCell>
        <mxCell id="c1ySDMqQpCsEUxz4fIQ0-47" value="" style="endArrow=open;endFill=1;endSize=12;html=1;rounded=0;exitX=1.007;exitY=0.857;exitDx=0;exitDy=0;exitPerimeter=0;entryX=0;entryY=0.5;entryDx=0;entryDy=0;edgeStyle=orthogonalEdgeStyle;" edge="1" parent="1" source="c1ySDMqQpCsEUxz4fIQ0-10" target="c1ySDMqQpCsEUxz4fIQ0-8">
          <mxGeometry width="160" relative="1" as="geometry">
            <mxPoint x="592" y="1710" as="sourcePoint" />
            <mxPoint x="752" y="1710" as="targetPoint" />
          </mxGeometry>
        </mxCell>
      </root>
    </mxGraphModel>
  </diagram>
</mxfile>
